<?xml version="1.0" encoding="utf-8"?><svg fill="none" height="40" viewBox="0 0 206 40" width="206" xmlns="http://www.w3.org/2000/svg" xmlns:xlink="http://www.w3.org/1999/xlink"><linearGradient id="a" gradientUnits="userSpaceOnUse" x1="20.0997" x2="20.0997" y1=".369124" y2="39.872"><stop offset="0" stop-color="#f452ff"/><stop offset="1" stop-color="#832bc1"/></linearGradient><clipPath id="b"><rect height="40" rx="12" width="206"/></clipPath><g clip-path="url(#b)"><path d="m39.3902 34.6138c-.5694 1.3328-1.4712 2.5027-2.6222 3.4014-.8413.6506-1.7985 1.1409-2.8226 1.446-1.5903.3779-3.225.5437-4.8602.493h-18.0213c-1.62968.0518-3.25903-.114-4.84347-.493-1.03645-.2997-2.00561-.7905-2.85601-1.446-1.11723-.8724-2.00031-2.0007-2.572078-3.2864-.616452-1.8423-.8770313-3.7818-.7682834-5.7184v-17.7796c-.088842-1.89932.1772234-3.79854.7849844-5.60338.562357-1.29579 1.439907-2.43568 2.555377-3.3193.8454-.65367 1.80873-1.14429 2.8393-1.44603 1.58445-.378954 3.21379-.544786 4.84358-.492966h18.088c1.6352-.050691 3.27.115116 4.8602.492966 1.0065.31067 1.9464.80084 2.7725 1.44603 1.1173.87244 2.0003 2.00077 2.5721 3.28644.6062 1.81628.8666 3.72699.7683 5.63624v17.7796c.1104 1.8953-.1331 3.7944-.7182 5.6034z" fill="url(#a)"/><g fill="#fff"><path d="m23.0063 23.0778c-.3947-.3573-.8582-.6329-1.3631-.8108-.5049-.1778-1.041-.2541-1.5764-.2245-.5299-.0252-1.0597.0533-1.5586.231s-.9569.451-1.3475.8043c-.3108.3025-.5004.705-.5345 1.1337-.1054.9943-.1054 1.9966 0 2.9907.1002 1.216.3006 2.8263.5679 4.4696.1049.7597.261 1.5118.4676 2.2512.1854.4481.5136.8249.9352 1.0738.4216.2488.914.3564 1.4031.3065.4914.0509.9863-.056 1.4108-.3048.4245-.2487.7557-.6261.9441-1.0755.2066-.7394.3628-1.4915.4677-2.2512.2505-1.6433.4509-3.2865.5511-4.4696.1055-.9941.1055-1.9964 0-2.9907.0125-.408-.1172-.8081-.3674-1.1337zm-6.1797-5.5705c0 .6499.1959 1.2853.5629 1.8258.3671.5404.8889.9617 1.4993 1.2104.6102.2488 1.2819.3138 1.9299.187s1.2431-.4398 1.7103-.8994c.4671-.4596.7853-1.0452.9141-1.6827.129-.6375.0628-1.2983-.1901-1.8988-.2528-.6005-.6809-1.1138-1.2303-1.475-.5492-.3611-1.1951-.5537-1.8557-.5537-.886 0-1.7356.3462-2.362.9625-.6264.6164-.9784 1.4522-.9784 2.3239zm3.2402-12.76785c-3.3292.01506-6.5461 1.18621-9.0834 3.30694-2.53724 2.12071-4.23187 5.05481-4.78502 8.28481-.55316 3.23.0707 6.5483 1.76154 9.37s4.34008 4.9652 7.48048 6.0528c.0315.0082.0648.0088.0966.0015.0319-.0072.0615-.0221.0861-.0431.0247-.0211.0439-.0478.0556-.0778.0119-.03.016-.0623.0122-.0943-.0835-.4765-.1503-.953-.2172-1.4131-.0066-.0829-.0367-.1622-.0868-.229-.0502-.0669-.1185-.1184-.1971-.149-2.587-1.1299-4.7-3.1013-5.98392-5.5831-1.28392-2.4819-1.66053-5.3229-1.06656-8.0457.59399-2.7228 2.12238-5.1615 4.32838-6.90638 2.2059-1.7449 4.9551-2.68967 7.7856-2.67556 2.8305.01412 5.5697.98625 7.7577 2.75305 2.1878 1.76679 3.691 4.22069 4.2569 6.94929.5659 2.7285.1601 5.5656-1.1494 8.0345-1.3094 2.4689-3.4426 4.4192-6.0411 5.5232-.0786.0306-.1469.0821-.1971.1489-.0501.0669-.0802.1462-.0869.229 0 .4601-.1336.9367-.2171 1.4132-.0039.0319.0003.0644.0122.0944.0117.03.0309.0566.0556.0776.0246.0212.0542.0359.0861.0432.0318.0073.065.0067.0966-.0016 3.1884-1.0649 5.8856-3.215 7.6056-6.063 1.7198-2.8481 2.3494-6.2068 1.7753-9.4711-.5742-3.2643-2.3143-6.2196-4.9069-8.33345-2.5926-2.11387-5.8673-3.24732-9.234-3.1962zm-.2505 6.37565c1.5588-.0603 3.0991.3498 4.4143 1.1752 1.3152.8255 2.3425 2.0268 2.9441 3.4429.6015 1.4161.7486 2.9794.4215 4.4801-.3271 1.5008-1.1128 2.8672-2.2516 3.9161-.0601.0609-.1072.1329-.1388.2119s-.0468.1633-.0449.2482c.0359.5471.0359 1.096 0 1.6433.0011.034.0112.0672.0292.0963s.0435.0531.0737.0697c.0303.0165.0645.0251.0991.0247.0347-.0003.0686-.0094.0986-.0264 1.6739-1.1208 2.9386-2.7399 3.6086-4.6198.6699-1.8798.7099-3.9214.114-5.8253-.5961-1.9038-1.7966-3.5696-3.4255-4.7528-1.6288-1.1833-3.6003-1.82179-5.625-1.82179s-3.9962.63849-5.625 1.82179c-1.6289 1.1832-2.8294 2.849-3.4254 4.7528-.596 1.9039-.5561 3.9455.1139 5.8253.67 1.8799 1.9347 3.499 3.6086 4.6198.0287.0184.062.0287.0963.0294.0342.0009.068-.0077.0976-.0249.0294-.0171.0536-.0418.0695-.0717s.0231-.0636.0205-.0971c0-.5587 0-1.0682 0-1.6433.0086-.0855-.0035-.1719-.0355-.2519-.0319-.08-.0827-.1513-.1482-.2082-1.0976-1.0228-1.8634-2.3419-2.2011-3.7916-.3376-1.4498-.2321-2.9655.3034-4.3564s1.4771-2.595 2.7062-3.4609c1.2292-.8657 2.6911-1.3547 4.2021-1.4054z"/><path d="m59.5483 21.9135h-6.1964l-1.5532 4.3217h-2.5721l5.9124-16.0213h2.7391l5.8791 16.0213h-2.6723zm-5.5617-1.9225h4.927l-2.4217-7.0329z"/><path d="m76.4196 20.4031c0 3.6314-1.9708 5.9649-5.0105 5.9649-.757.0388-1.5096-.1333-2.1715-.4967-.6619-.3633-1.206-.9032-1.5698-1.5573v5.8005h-2.4217v-15.5613h2.3549v1.939c.3864-.6457.9423-1.1771 1.6094-1.5385s1.4208-.5395 2.1819-.5155c3.0397 0 5.0273 2.2676 5.0273 5.9649zm-2.5053 0c0-2.3663-1.236-3.9274-3.1399-3.9274-1.904 0-3.1066 1.6433-3.1066 3.9274 0 2.284 1.2526 3.9272 3.1066 3.9272 1.8539 0 3.1399-1.5446 3.1399-3.9272z"/><path d="m89.4968 20.4034c0 3.6314-1.9708 5.9649-5.0105 5.9649-.7541.0356-1.5033-.1379-2.1619-.5011-.6586-.3633-1.2-.9014-1.5627-1.553v5.8005h-2.4551v-15.5612h2.3717v1.939c.385-.6469.9406-1.1792 1.6081-1.5409.6673-.3616 1.4217-.5389 2.1832-.5131 3.0398 0 5.0272 2.2677 5.0272 5.9649zm-2.5052 0c0-2.3662-1.2359-3.9274-3.14-3.9274-1.904 0-3.1065 1.6433-3.1065 3.9274 0 2.284 1.2526 3.9272 3.1065 3.9272s3.14-1.5446 3.14-3.9272z"/><path d="m91.4668 10.2141h2.4384v16.0214h-2.4384z"/><path d="m106.598 22.8012c-.265 1.1052-.93 2.078-1.87 2.737-.94.6589-2.092.9593-3.24.8452-3.4576 0-5.5955-2.2841-5.5955-5.932 0-3.648 2.1545-6.0471 5.4945-6.0471 3.341 0 5.362 2.3006 5.362 5.7677v.8216h-8.3512v.1479c-.0359.4294.0214.8612.1679 1.2671.1467.4059.3793.7765.6825 1.0873.3032.3107.6701.5545 1.0768.7152.406.1606.842.2346 1.279.2169.576.0546 1.155-.0759 1.649-.3723.494-.2963.876-.7423 1.091-1.271zm-8.2337-3.4837h5.9297c.023-.386-.036-.7725-.172-1.1352-.137-.3627-.348-.6934-.621-.9714-.274-.2782-.602-.4974-.966-.6438-.364-.1466-.755-.2171-1.148-.2074-.396-.0043-.79.069-1.158.2159-.3675.1469-.7018.3644-.9831.6397-.2815.2753-.5043.603-.6556.9639-.1514.361-.2282.7479-.226 1.1383z"/><path d="m119.725 10.2148c.712-.0351 1.423.0767 2.089.3283.665.2516 1.27.6373 1.775 1.1326.505.4952.899 1.089 1.158 1.7429.257.654.372 1.3538.339 2.0545.031.7087-.089 1.416-.352 2.0765-.263.6603-.664 1.2591-1.178 1.7575-.512.4986-1.126.8858-1.8 1.1368-.675.2509-1.395.3601-2.115.3203h-3.49v5.472h-2.555v-16.0214zm-3.574 8.4625h2.889c.45.0597.907.02 1.339-.1158.432-.136.829-.3649 1.159-.6702.331-.3052.589-.6791.754-1.0945.167-.4155.237-.862.205-1.3072.032-.4432-.038-.8876-.202-1.301-.166-.4136-.422-.7856-.751-1.0894-.33-.3036-.724-.5313-1.155-.6664-.43-.1351-.884-.1744-1.332-.1147h-2.906z"/><path d="m125.973 20.4021c0-3.6808 2.204-5.9978 5.645-5.9978 3.44 0 5.629 2.317 5.629 5.9978s-2.172 5.9813-5.629 5.9813c-3.458 0-5.645-2.3005-5.645-5.9813zm8.785 0c0-2.5306-1.169-4.0095-3.14-4.0095s-3.157 1.4954-3.157 4.0095 1.169 4.0094 3.157 4.0094c1.987 0 3.14-1.4789 3.14-4.0094z"/><path d="m138.965 20.4021c0-3.6151 2.022-5.9649 5.011-5.9649.754-.0377 1.505.1351 2.163.4984.659.3635 1.2.9027 1.562 1.5556v-6.2771h2.438v16.0214h-2.372v-1.9883c-.363.6703-.912 1.2254-1.583 1.6008-.671.3752-1.437.5552-2.208.519-2.989 0-5.011-2.3663-5.011-5.9649zm2.489 0c0 2.3991 1.236 3.9272 3.14 3.9272s3.123-1.561 3.123-3.9272-1.252-3.9274-3.123-3.9274-3.14 1.5447-3.14 3.9274z"/><path d="m160.528 18.5798c-.107-.6402-.455-1.2172-.975-1.6162-.521-.3989-1.173-.5905-1.83-.5365-1.871 0-3.124 1.5447-3.124 3.9767 0 2.4319 1.253 3.9766 3.139 3.9766.647.0633 1.294-.1167 1.813-.5039.517-.3871.866-.9528.977-1.583h2.338c-.147 1.2068-.767 2.3094-1.728 3.0736-.96.7642-2.186 1.1294-3.415 1.0179-3.341 0-5.596-2.284-5.596-5.9812s2.204-5.9978 5.579-5.9978c1.24-.1014 2.473.2781 3.435 1.0578.96.7797 1.574 1.8978 1.708 3.116z"/><path d="m164.369 22.9175c0-2.0377 1.587-3.2864 4.409-3.4343l3.257-.1808v-.953c0-1.2982-.869-2.0377-2.355-2.0377-.547-.07-1.101.0581-1.559.3606-.458.3023-.788.7582-.929 1.2827h-2.289c0-2.1034 2.071-3.6152 4.843-3.6152 2.774 0 4.71 1.5283 4.71 3.8288v8.0681h-2.404v-1.9225c-.377.6518-.924 1.1922-1.585 1.5651-.661.3728-1.411.5643-2.174.5547-.497.0457-.998-.0113-1.472-.1672-.475-.1558-.91-.4073-1.279-.7383s-.665-.7341-.867-1.1838c-.202-.4495-.306-.9356-.306-1.4272zm7.666-1.0517v-.9037l-2.923.1807c-1.469.0822-2.288.7066-2.288 1.6433 0 .9365.851 1.6432 2.171 1.6432.372.0292.746-.014 1.101-.127s.684-.2937.967-.5318c.284-.238.517-.5288.687-.8555.169-.3269.272-.6834.302-1.0492z"/><path d="m181.255 14.4202c2.639 0 4.526 1.4296 4.576 3.5001h-2.288c-.1-1.0352-.985-1.6432-2.355-1.6432-1.369 0-2.188.5915-2.188 1.4953s.585 1.1667 1.804 1.4789l2.004.4436c2.389.5752 3.341 1.446 3.341 3.155 0 2.1034-2.021 3.5494-5.012 3.5494-2.989 0-4.676-1.4132-4.86-3.5494h2.456c.183 1.1338 1.086 1.7254 2.572 1.7254s2.372-.5916 2.372-1.5118c0-.9201-.452-1.1173-1.671-1.4296l-2.12-.5094c-2.139-.5093-3.225-1.6432-3.225-3.2042-.049-2.0869 1.838-3.5001 4.594-3.5001z"/><path d="m191.411 11.7754v2.7607h2.255v1.9061h-2.255v6.4414c0 1.0023.45 1.4625 1.436 1.4625h.802v1.8896c-.447.0769-.9.1099-1.354.0987-2.404 0-3.339-.8873-3.339-3.155v-6.7208h-1.671v-1.9061h1.671v-2.7771z"/><path d="m200.212 14.4202c2.64 0 4.527 1.4296 4.577 3.5001h-2.288c-.1-1.0352-.985-1.6432-2.355-1.6432s-2.188.5915-2.188 1.4953.585 1.1667 1.804 1.4789l2.004.4436c2.388.5752 3.34 1.446 3.34 3.155 0 2.1034-2.021 3.5494-4.926 3.5494-2.906 0-4.744-1.4789-4.91-3.5658h2.404c.184 1.1338 1.086 1.7253 2.572 1.7253 1.487 0 2.372-.5915 2.372-1.5117s-.451-1.1174-1.67-1.4296l-2.172-.5093c-2.137-.5095-3.223-1.6433-3.223-3.2044.017-2.0704 1.904-3.4836 4.659-3.4836z"/></g></g></svg>