<?xml version="1.0" encoding="utf-8"?><svg fill="none" height="32" viewBox="0 0 146 32" width="146" xmlns="http://www.w3.org/2000/svg" xmlns:xlink="http://www.w3.org/1999/xlink"><clipPath id="a"><path d="m0 0h146v32h-146z"/></clipPath><g clip-path="url(#a)"><path d="m45.5936 4.94621c-.2675-.95609-.7892-1.82771-1.5132-2.52806s-1.625-1.20499-2.6133-1.463667c-3.6183-.954483-18.1796-.954483-18.1796-.954483s-14.56175.0289655-18.17953.983448c-.98826.258712-1.88923.763372-2.61317 1.463722s-1.24561 1.57195-1.513038 2.528c-1.09443 6.21933-1.519028 15.69543.029938 21.66563.26744.9561.7891 1.8277 1.51304 2.528.72395.7004 1.62491 1.205 2.61317 1.4638 3.61807.9544 18.17959.9544 18.17959.9544s14.5615 0 18.1795-.9544c.9883-.2588 1.8893-.7634 2.6132-1.4638.724-.7003 1.2456-1.5719 1.5131-2.528 1.154-6.2278 1.5099-15.6982-.03-21.69432z" fill="#f00"/><g fill="#fff"><path d="m18.653 22.5623 12.0797-6.7686-12.0797-6.7688z"/><path d="m140.079 9.16969c1.585 0 2.781.2891 3.618.83861.837.5498 1.436 1.4174 1.794 2.6036.359 1.1859.508 2.8055.508 4.8883v3.3845h-7.684v1.0411l.12 2.8638c.089.6364.239 1.0993.478 1.3884.24.2893.628.4339 1.136.4339.688 0 1.167-.2601 1.406-.7807.269-.5208.388-1.3887.418-2.5746l3.977.2314c.03.1736.03.405.03.6941 0 1.8223-.508 3.1821-1.555 4.0786-1.047.8966-2.482 1.3595-4.365 1.3595-2.273 0-3.857-.6941-4.755-2.0535-.896-1.3598-1.375-3.5005-1.375-6.3639v-3.5001c.102-4.9173.996-8.51866 6.249-8.53301zm-55.2858.376v14.49191c0 .8678.0895 1.5042.2989 1.8802.4246.8042 1.525.5986 2.1229.2025.3453-.2257.6235-.5348.8073-.8965v-15.67839h4.5748v19.75639h-3.5881l-.3887-2.4298h-.0895c-.9867 1.8224-2.4521 2.7479-4.3955 2.7479-2.9912-.0072-3.7232-2.0921-3.8975-4.2097l-.0114-.1492c-.0215-.3207-.0341-.6419-.0379-.9633v-14.75201h4.6044zm23.5918 0v14.49191c0 .8678.089 1.5042.299 1.8802.424.8042 1.525.5986 2.123.2025.345-.2257.623-.5348.807-.8965v-15.67839h4.575v19.75639h-3.588l-.389-2.4298h-.09c-.986 1.8224-2.452 2.7479-4.395 2.7479-2.991-.0072-3.723-2.0921-3.898-4.2097l-.011-.1492c-.022-.3207-.034-.6419-.038-.9633v-14.75201zm-36.8678-.376c1.4951 0 2.721.2891 3.6181.89651.8968.6075 1.5846 1.5333 2.0032 2.8058.4186 1.2729.6279 2.9793.6279 5.0911v2.8634c0 2.1117-.2093 3.7895-.6279 5.0621-.4186 1.2731-1.0765 2.1986-2.0032 2.8061-.9268.5784-2.1829.8965-3.7376.8965-1.6148.029-2.8707-.2891-3.7974-.8676-.9268-.6074-1.5849-1.5332-1.9733-2.8058-.389-1.2728-.5683-2.9506-.5683-5.062v-2.864c0-2.1118.2093-3.8472.6578-5.12.4486-1.3016 1.1361-2.2274 2.0931-2.8056.9567-.57872 2.1826-.89679 3.7076-.89679zm51.8478-7.92579v10.4132h.03c.418-.752.957-1.3594 1.704-1.82231.698-.45414 1.521-.69586 2.362-.69407 1.107 0 1.944.28911 2.572.83862.628.57876 1.076 1.47536 1.345 2.71916.261 1.205.409 2.8715.418 4.973l.001.2049v3.1239c0 2.9214-.389 5.091-1.107 6.4795-.747 1.3884-1.883 2.0827-3.438 2.0827-.867 0-1.645-.2025-2.362-.5785-.635-.3577-1.161-.8707-1.526-1.4874l-.059-.1037h-.09l-.478 1.8802h-3.797v-28.02893h4.425zm-18.299 1.01241v3.58648h-4.545v23.45901h-4.4852v-23.45873h-4.5748v-3.58648h13.605zm-49.3065 0 .0028.01103c.0436.18787.6482 2.78787 1.3132 5.81711l.0524.24.0793.36276.053.24358.0266.12221.053.24497.0265.12275.0528.2458.077.35948c.4491 2.0976.8777 4.2013 1.134 5.7098h.1198c.2455-1.3531.6022-3.0847.9826-4.8527l.0998-.4618c.0502-.2312.1004-.46237.1512-.69299l.0781-.35779c.5166-2.34294 1.0486-4.68267 1.596-7.01904l.0086-.03724.0137-.05793h4.5747l-5.2925 18.25239v8.7644h-4.5148v-8.7357h-.03l-5.2326-18.28137zm15.6679 9.97929c-.6279 0-1.0466.3184-1.3155.9837-.2691.6651-.3886 1.6776-.3886 3.0952v6.1611c0 1.4464.1195 2.5164.3587 3.1531.2392.6362.6878.9545 1.3454.9545.6279 0 1.0764-.3183 1.3456-.9545.2692-.6367.3887-1.7067.3887-3.1531v-6.1614c0-1.4173-.1198-2.4587-.3887-3.0951-.2692-.6651-.7177-.9835-1.3456-.9835zm52.7446.5788c-.364.3255-.623.7269-.778 1.2287l-.029.1018v11.2231c.371.6075.897 1.0124 1.824 1.0414.478 0 .867-.1735 1.166-.5205.299-.3471.508-.9258.628-1.7358.115-.7773.174-1.8482.179-3.2121v-2.7465c0-1.5619-.06-2.7478-.149-3.5867-.12-.8389-.269-1.4464-.538-1.7934-.521-.7233-1.645-.7145-2.303 0zm15.818-.6654c-.509.029-.868.1735-1.077.4339-.239.2891-.389.7231-.478 1.3595-.088.6234-.119 2.8027-.12 2.8899v1.4201h3.349v-1.2524.024c-.002.4378-.011-.254-.032-1.1034l-.003-.1142c-.019-.7465-.046-1.5788-.085-1.864-.089-.6654-.239-1.1283-.478-1.3884-.239-.2604-.598-.405-1.077-.405z"/></g></g></svg>