<?xml version="1.0" encoding="utf-8"?><svg fill="none" height="40" viewBox="0 0 145 40" width="145" xmlns="http://www.w3.org/2000/svg"><path d="m19.6441 0c-3.8853 0-7.6833 1.14651-10.91367 3.29453-3.23046 2.14804-5.74829 5.20111-7.2351 8.77317-1.48681888 3.5721-1.875837 7.5026-1.117865 11.2946.757975 3.7921 2.628885 7.2754 5.376155 10.0093 2.74728 2.734 6.24748 4.5957 10.05818 5.3501 3.8105.7542 7.7602.3671 11.3498-1.1125 3.5895-1.4795 6.6574-3.9852 8.8159-7.2 2.1586-3.2146 3.3106-6.9942 3.3106-10.8605 0-5.1847-2.0696-10.15696-5.7536-13.82303-3.684-3.66609-8.6805-5.72567-13.8904-5.72567zm9.0147 28.1919c-.0837.1381-.1941.2583-.3247.3537-.1307.0953-.2791.1637-.4367.2015s-.3211.044-.481.0182c-.1599-.0256-.3132-.0826-.4508-.1679-4.6093-2.8082-10.41-3.4323-17.24545-1.8877-.1555.037-.31681.0427-.47459.0172-.15776-.0257-.30886-.0822-.44449-.1663-.13564-.0843-.25313-.1944-.34564-.3242-.09253-.1296-.15823-.2764-.19331-.4316-.03728-.1557-.04331-.3172-.01776-.4752.02554-.1582.08217-.3096.16664-.4458.08446-.1362.1951-.2546.32559-.3481.13049-.0937.27826-.1607.43484-.1974 7.47827-1.7006 13.90607-.9673 19.07967 2.1841.276.168.474.438.5503.7509.0765.3129.0252.6433-.1426.9186zm2.3986-5.3201c-.2191.3353-.5593.5741-.9502.667s-.8029.0329-1.1506-.1678c-5.961-3.3091-12.9981-4.1283-19.56569-2.2778-.20436.1134-.43164.1798-.66515.1944-.23352.0145-.46735-.0232-.68436-.1102-.217-.087-.41168-.2213-.56974-.393-.15806-.1716-.27551-.3763-.34374-.5991-.06821-.2226-.08547-.4577-.0505-.688.03496-.2302.12126-.4497.25257-.6424.13131-.1928.3043-.3538.5063-.4713.20198-.1175.42783-.1886.661-.2079 3.66581-1.0501 7.50551-1.3606 11.29351-.9131 3.7881.4473 7.4481 1.6436 10.7649 3.5185.337.2181.577.5566.6703.9457.0934.389.033.7989-.1686 1.145zm.2038-5.5386c-6.2711-3.7443-16.7594-4.0875-22.81094-2.2622-.4657.1407-.96847.0916-1.39774-.1367-.42925-.2282-.74982-.6167-.89121-1.0802-.14136-.4634-.09194-.9638.13738-1.391.22933-.4271.61979-.7461 1.08548-.8868 6.94513-2.09061 18.46823-1.68498 25.75843 2.6055.3748.2669.6349.6644.7285 1.1134.0937.4491.014.9168-.2231 1.3101-.2372.3933-.6143.6834-1.0567.8124-.4421.1291-.9171.0879-1.3301-.1157z" fill="#1dd75f"/><g fill="#fff"><path d="m57.8195 15.9626c-3.7627-.9049-4.4368-1.5602-4.4368-2.8394 0-1.2793 1.1758-2.0907 2.9318-2.0907 1.8827.0703 3.6899.7557 5.1421 1.9502.0292.015.0614.0229.0941.0229.0328 0 .0651-.0079.0941-.0229.0618-.0118.1172-.045.1567-.0936l1.8501-2.5898c.0368-.0467.0569-.1044.0569-.1638s-.0201-.1171-.0569-.16385c-2.0399-1.66159-4.6075-2.54647-7.2432-2.49623-4.0604 0-6.8981 2.43382-6.8981 5.89728 0 3.7288 2.4457 5.0549 6.6786 6.069 3.606.8269 4.2174 1.5602 4.2174 2.7615s-1.2386 2.2154-3.1355 2.2154c-2.2425-.0154-4.3907-.8996-5.9889-2.4651-.061-.0202-.1271-.0202-.1881 0-.0649.0156-.1244.0478-.1725.0937l-2.1008 2.4182c-.0442.0463-.0687.1078-.0687.1716 0 .0639.0245.1253.0687.1716 2.2822 2.0344 5.2455 3.1471 8.3092 3.1204 4.374 0 7.2117-2.3871 7.2117-6.069-.0627-3.0735-1.944-4.7897-6.5219-5.8974z"/><path d="m74.1871 12.2648c-.9055-.0056-1.8003.1954-2.6156.5875-.8154.3922-1.5295.965-2.0876 1.6747v-1.7161c-.0041-.0636-.0322-.1231-.0788-.1666-.0466-.0434-.1081-.0676-.1721-.0675h-3.402c-.064-.0001-.1255.0241-.1721.0675-.0466.0435-.0748.103-.0788.1666v19.0338c0 .0661.0264.1296.0735.1764.047.0469.1109.0731.1774.0731h3.3706c.0666 0 .1304-.0262.1775-.0731.047-.0468.0734-.1103.0734-.1764v-5.9755c.5766.6799 1.2974 1.2242 2.1107 1.5938.8133.3695 1.6987.5552 2.5926.5436 3.5275 0 7.102-2.6989 7.102-7.8787 0-5.1797-3.5432-7.8631-7.0707-7.8631zm3.1355 7.8007c.0587.5579.0005 1.1218-.171 1.6563-.1715.5343-.4525 1.0275-.8253 1.4483-.3727.4208-.8291.76-1.3404.9964-.5112.2364-1.0661.3646-1.6297.3766-.5651-.0173-1.1208-.1484-1.6337-.3855-.5128-.2369-.9721-.5748-1.3501-.9933-.378-.4184-.6669-.9087-.8492-1.4413-.1824-.5326-.2545-1.0965-.2117-1.6575-.0406-.5598.0332-1.122.2166-1.6527.1833-.5308.4726-1.0193.8504-1.4359.3777-.4168.8362-.7533 1.3479-.9893s1.0662-.3666 1.6298-.3841c.5705.0097 1.1326.1376 1.6508.3756.518.2379.9805.5806 1.3581 1.0062.3775.4257.6619.925.8349 1.466.173.5411.2308 1.1121.1697 1.6766z"/><path d="m90.4436 12.2647c-1.5666.0278-3.09.5167-4.3777 1.4051-1.2877.8883-2.2824 2.1362-2.8583 3.5863-.5759 1.4502-.7074 3.0376-.3778 4.562.3296 1.5243 1.1054 2.9176 2.2295 4.0037 1.1243 1.0862 2.5465 1.8166 4.0875 2.0994 1.5408.2828 3.1314.1051 4.571-.5107 1.4396-.6156 2.6637-1.6418 3.5179-2.9491.8541-1.3072 1.3002-2.8369 1.2819-4.396-.0142-1.0401-.2346-2.0672-.6484-3.0224-.4136-.9553-1.0126-1.82-1.7625-2.5446-.7501-.7245-1.6363-1.2949-2.608-1.6781-.9718-.3833-2.0099-.5721-3.0551-.5556zm0 12.372c-.5791-.0076-1.1508-.1316-1.6806-.3647-.5297-.233-1.0067-.5702-1.4021-.9914-.3954-.4213-.7012-.9177-.8988-1.4595-.1977-.5418-.2832-1.1178-.2514-1.6933-.0364-.5676.0444-1.1366.2374-1.6719.193-.5355.4941-1.0258.8848-1.4409.3908-.4151.8627-.7462 1.3869-.9729.5243-.2267 1.0895-.3441 1.6611-.3451.5811.0035 1.1555.124 1.6887.3541.533.23 1.014.5649 1.4138.9847.3998.4196.7102.9154.9125 1.4575s.2925 1.1193.265 1.6969c.0366.5724-.0455 1.146-.2412 1.6854-.1957.5393-.5009 1.0328-.8964 1.4498-.3956.4171-.8731.7487-1.4029.9743-.5298.2255-1.1006.3403-1.6768.337z"/><path d="m108.223 12.5769h-3.715v-3.77552c0-.06358-.025-.12482-.068-.17121-.044-.04639-.104-.07443-.168-.07841h-3.37c-.067 0-.131.0263-.178.07312-.047.04681-.073.1103-.073.1765v3.77552h-1.6619c-.0309 0-.0616.006-.09.0178-.0286.0118-.0545.029-.0763.0508-.0219.0217-.0392.0476-.051.0759-.0119.0284-.018.0589-.018.0895v2.8864c-.0001.0635.0242.1248.0679.1712.0437.0463.1036.0743.1674.0783h1.5679v7.4576c0 3.011 1.568 4.54 4.484 4.54 1.097.0309 2.182-.239 3.135-.7801.038-.0181.071-.0469.093-.0829s.034-.0777.033-.1199v-2.7459c0-.0424-.009-.0844-.029-.1225-.019-.038-.047-.0709-.081-.0959-.038-.0236-.081-.036-.126-.036-.044 0-.088.0124-.125.036-.612.3086-1.289.469-1.975.4681-1.082 0-1.568-.4837-1.568-1.5602v-6.9583h3.715c.067 0 .131-.0263.178-.0731s.073-.1103.073-.1764v-2.8864c.002-.0484-.01-.0963-.035-.1378-.025-.0416-.062-.075-.106-.0962z"/><path d="m121.157 12.5927v-.4681c0-1.3729.517-1.9814 1.693-1.9814.653.0076 1.301.129 1.913.3589.034.0155.072.0235.11.0235.037 0 .075-.008.109-.0235.031-.0242.056-.0552.071-.0904.017-.0352.024-.0737.023-.1124v-2.85511c.003-.05467-.012-.10871-.044-.15382-.031-.0451-.076-.07877-.128-.0958-.916-.23961-1.861-.34474-2.806-.31204-3.136 0-4.703 1.74737-4.703 5.03927v.7177h-1.569c-.062 0-.122.0247-.166.0686-.044.0438-.068.1033-.068.1654v2.9019c0 .0635.024.1248.067.1712.044.0463.104.0745.167.0783h1.569v11.5139c0 .0621.024.1217.068.1656.045.0439.104.0685.166.0685h3.309c.063.0002.125-.0241.171-.0675.047-.0436.076-.103.079-.1666v-11.5919h3.136l4.829 11.4984c-.549 1.2169-1.098 1.4509-1.835 1.4509-.65-.0176-1.285-.1944-1.85-.5148-.032-.0152-.066-.0231-.102-.0231-.035 0-.069.0079-.102.0231-.031.009-.059.0249-.085.0465-.024.0216-.043.0484-.055.0783l-1.05 2.4806c-.024.0564-.026.1193-.006.1767.021.0574.061.1056.115.1353 1.096.6255 2.342.9436 3.605.9205 2.477 0 3.858-1.1545 5.081-4.2592l5.847-15.0398c.019-.036.029-.0762.029-.117s-.01-.081-.029-.117c-.024-.0304-.055-.0546-.09-.0708-.036-.0162-.075-.024-.113-.0228h-3.607c-.049.0031-.097.0191-.138.0466-.042.0273-.075.0651-.097.1094l-3.59 10.2189-3.873-10.2189c-.019-.0465-.051-.0863-.093-.1141-.042-.0279-.092-.0424-.142-.0419z"/><path d="m113.663 12.5769h-3.371c-.139 0-.251.1118-.251.2497v14.6341c0 .1379.112.2497.251.2497h3.371c.138 0 .25-.1118.25-.2497v-14.6341c0-.1379-.112-.2497-.25-.2497z"/><path d="m111.994 6.60967c-.466-.00299-.923.13183-1.312.38736-.389.25554-.693.62028-.873 1.04799-.181.4277-.23.89911-.141 1.35444s.312.87404.641 1.20314.748.5537 1.204.6452c.458.0917.931.0461 1.363-.1306.431-.1769.799-.4771 1.058-.8625.26-.38553.399-.83897.399-1.30284.001-.30687-.058-.61109-.174-.89518-.117-.28408-.289-.5424-.506-.76009-.218-.21769-.476-.39046-.76-.50834-.286-.11789-.59-.17858-.899-.17858z"/><path d="m141.522 17.2728c-.311.002-.62-.0575-.909-.1751-.288-.1177-.55-.2911-.77-.5104-.22-.2191-.394-.4796-.513-.7664-.118-.2868-.178-.594-.176-.904 0-.6289.252-1.2321.699-1.6768.446-.4448 1.052-.6946 1.684-.6946.311-.002.62.0574.909.1751.288.1176.55.2911.771.5103.22.2191.394.4797.512.7664.118.2868.178.594.176.904 0 .6289-.251 1.2322-.698 1.6768-.446.4448-1.053.6947-1.685.6947zm0-4.4932c-.426-.0031-.843.12-1.199.3536-.356.2337-.634.5674-.798.9586-.165.3911-.209.8222-.126 1.2382.082.4161.287.7983.589 1.0982.301.2999.685.5038 1.103.5857.418.082.852.0383 1.245-.1253.392-.1637.728-.4401.962-.7939.235-.3539.359-.7694.356-1.1934.002-.2778-.051-.5534-.156-.8107-.107-.2574-.262-.4915-.459-.6887s-.43-.3538-.688-.4606-.535-.1617-.814-.1617zm.532 2.3713.659.9361h-.565l-.595-.8581h-.517v.8581h-.486v-2.4807h1.113c.58 0 .972.2965.972.7802.004.1714-.05.3392-.152.4774s-.247.2391-.412.287zm-.407-1.1232h-.611v.78h.611c.313 0 .501-.1404.501-.39 0-.2497-.171-.39-.485-.39z"/></g></svg>